<svg fill="none" viewBox="0 0 20 20" xmlns="http://www.w3.org/2000/svg"><path d="M12.5 8a.5.5 0 0 0-1 0v6a.5.5 0 0 0 1 0V8ZM9.5 7.5a.5.5 0 0 1 .5.5v6a.5.5 0 0 1-1 0V8a.5.5 0 0 1 .5-.5ZM7.5 8a.5.5 0 0 0-1 0v6a.5.5 0 0 0 1 0V8Z" fill="#0e321a" class="fill-212121"></path><path d="M6.5 2A2.5 2.5 0 0 0 4 4.5v11.75c0 .966.784 1.75 1.75 1.75h7.5A1.75 1.75 0 0 0 15 16.25V15h.5a2.5 2.5 0 0 0 2.5-2.5v-5A2.5 2.5 0 0 0 15.5 5H15v-.5A2.5 2.5 0 0 0 12.5 2h-6ZM15 6h.5A1.5 1.5 0 0 1 17 7.5v5a1.5 1.5 0 0 1-1.5 1.5H15V6ZM5 4.5A1.5 1.5 0 0 1 6.5 3h6A1.5 1.5 0 0 1 14 4.5V5H5v-.5ZM5 6h9v10.25a.75.75 0 0 1-.75.75h-7.5a.75.75 0 0 1-.75-.75V6Z" fill="#0e321a" class="fill-212121"></path></svg>