<svg viewBox="0 0 91 91" xml:space="preserve" xmlns="http://www.w3.org/2000/svg" enable-background="new 0 0 91 91"><path d="M71.9 23.9c-.5-.3-1.1-.3-1.6-.1l-3.7 1.8c-.8.4-1.2 1.4-.8 2.3.4.8 1.4 1.2 2.3.8l1.2-.6.2 37.3-13.8 6.7V46.5c0-.9-.8-1.7-1.7-1.7s-1.7.8-1.7 1.7v25.8l-15.8-6.4v-6.6c1.8-1.9 6.6-7.5 6.6-11.2 0-4-2.9-7.4-6.6-8.1V27.7l3 1c.9.3 1.8-.2 2.1-1s-.2-1.8-1-2.1l-5.3-1.8c-.4-.1-.9-.1-1.3.1l-13.3 6.6c-.4.3-.7.9-.7 1.5v41c0 .6.3 1.1.8 1.4.5.3 1.1.4 1.6.1L35.3 69l18.2 7.3c.2.1.4.1.6.1.3 0 .5-.1.7-.2L72 67.9c.6-.3 1-.9.9-1.5l-.3-41c.1-.6-.2-1.2-.7-1.5zm-32 24.2c0 1.7-2.6 5.4-4.9 8.1-2.3-2.7-4.9-6.3-4.9-8.1 0-2.7 2.2-4.9 4.9-4.9s4.9 2.2 4.9 4.9zM23.4 33l9.9-4.9V40c-3.8.8-6.6 4.1-6.6 8.1 0 3.7 4.8 9.3 6.6 11.2v6.9l-9.9 4.3V33z" fill="#0e321a" class="fill-000000"></path><path d="M32.9 48.2c0 1.1.9 2 2 2s2-.9 2-2-.9-2-2-2-2 .9-2 2zM54.1 14.1c-6.3 0-11.4 5.1-11.4 11.4 0 5.9 9.4 15.8 10.4 16.9l.9.9.9-.9c1.1-1.1 10.4-11 10.4-16.9.1-6.3-5-11.4-11.2-11.4zm0 7.6c1.9 0 3.5 1.5 3.5 3.5 0 1.9-1.5 3.5-3.5 3.5s-3.5-1.5-3.5-3.5c0-1.9 1.6-3.5 3.5-3.5z" fill="#0e321a" class="fill-000000"></path></svg>